<svg id="elgv3ScWQ9k1" xmlns="http://www.w3.org/2000/svg" xmlns:xlink="http://www.w3.org/1999/xlink" viewBox="0 0 700 400" shape-rendering="geometricPrecision" text-rendering="geometricPrecision" width="700" height="400" style="background-color:rgb(251,251,251)"><style><![CDATA[#elgv3ScWQ9k4 {animation-name: elgv3ScWQ9k4_c_o, elgv3ScWQ9k4_s_do, elgv3ScWQ9k4_s_da;animation-duration: 4500ms;animation-fill-mode: forwards;animation-timing-function: linear;animation-direction: normal;animation-iteration-count: infinite;}@keyframes elgv3ScWQ9k4_c_o { 0% {opacity: 0.5} 15.555556% {opacity: 0.5} 88.888889% {opacity: 0} 100% {opacity: 0}}@keyframes elgv3ScWQ9k4_s_do { 0% {stroke-dashoffset: 0;animation-timing-function: cubic-bezier(0,0,0.58,1)} 15.555556% {stroke-dashoffset: 135;animation-timing-function: cubic-bezier(0,0,0.575,0.95)} 33.333333% {stroke-dashoffset: 135} 88.888889% {stroke-dashoffset: 135} 100% {stroke-dashoffset: 135}}@keyframes elgv3ScWQ9k4_s_da { 0% {stroke-dasharray: 0, 411.61;animation-timing-function: cubic-bezier(0,0,0.58,1)} 15.555556% {stroke-dasharray: 135, 276.61;animation-timing-function: cubic-bezier(0,0,0.575,0.95)} 33.333333% {stroke-dasharray: 135, 276.61} 88.888889% {stroke-dasharray: 135, 276.61} 100% {stroke-dasharray: 135, 276.61}} #elgv3ScWQ9k5 {animation-name: elgv3ScWQ9k5_c_o, elgv3ScWQ9k5_s_do, elgv3ScWQ9k5_s_da;animation-duration: 4500ms;animation-fill-mode: forwards;animation-timing-function: linear;animation-direction: normal;animation-iteration-count: infinite;}@keyframes elgv3ScWQ9k5_c_o { 0% {opacity: 0} 15.555556% {opacity: 0} 20% {opacity: 1} 88.888889% {opacity: 1} 100% {opacity: 0}}@keyframes elgv3ScWQ9k5_s_do { 0% {stroke-dashoffset: 0} 15.555556% {stroke-dashoffset: 135;animation-timing-function: cubic-bezier(0,0,0.575,0.95)} 33.333333% {stroke-dashoffset: 135} 42.222222% {stroke-dashoffset: 135;animation-timing-function: cubic-bezier(0.295,0.71,0.575,0.95)} 88.888889% {stroke-dashoffset: 411.61} 100% {stroke-dashoffset: 411.61}}@keyframes elgv3ScWQ9k5_s_da { 0% {stroke-dasharray: 0, 411.61} 15.555556% {stroke-dasharray: 0, 411.61;animation-timing-function: cubic-bezier(0,0,0.575,0.95)} 33.333333% {stroke-dasharray: 135, 276.61} 42.222222% {stroke-dasharray: 135, 276.61;animation-timing-function: cubic-bezier(0.295,0.71,0.575,0.95)} 88.888889% {stroke-dasharray: 411.61, 0} 100% {stroke-dasharray: 411.61, 0}} #elgv3ScWQ9k6 {animation-name: elgv3ScWQ9k6_c_o, elgv3ScWQ9k6_s_do, elgv3ScWQ9k6_s_da;animation-duration: 4500ms;animation-fill-mode: forwards;animation-timing-function: linear;animation-direction: normal;animation-iteration-count: infinite;}@keyframes elgv3ScWQ9k6_c_o { 0% {opacity: 0.5} 15.555556% {opacity: 0.5} 88.888889% {opacity: 0} 100% {opacity: 0}}@keyframes elgv3ScWQ9k6_s_do { 0% {stroke-dashoffset: 0;animation-timing-function: cubic-bezier(0,0,0.58,1)} 15.555556% {stroke-dashoffset: 220;animation-timing-function: cubic-bezier(0,0,0.575,0.95)} 33.333333% {stroke-dashoffset: 220} 88.888889% {stroke-dashoffset: 220} 100% {stroke-dashoffset: 220}}@keyframes elgv3ScWQ9k6_s_da { 0% {stroke-dasharray: 0, 691.25;animation-timing-function: cubic-bezier(0,0,0.58,1)} 15.555556% {stroke-dasharray: 220, 471.25;animation-timing-function: cubic-bezier(0,0,0.575,0.95)} 33.333333% {stroke-dasharray: 220, 471.25} 88.888889% {stroke-dasharray: 220, 471.25} 100% {stroke-dasharray: 220, 471.25}} #elgv3ScWQ9k7 {animation-name: elgv3ScWQ9k7_c_o, elgv3ScWQ9k7_s_do, elgv3ScWQ9k7_s_da;animation-duration: 4500ms;animation-fill-mode: forwards;animation-timing-function: linear;animation-direction: normal;animation-iteration-count: infinite;}@keyframes elgv3ScWQ9k7_c_o { 0% {opacity: 0} 15.555556% {opacity: 0} 20% {opacity: 1} 88.888889% {opacity: 1} 100% {opacity: 0}}@keyframes elgv3ScWQ9k7_s_do { 0% {stroke-dashoffset: 0} 15.555556% {stroke-dashoffset: 220;animation-timing-function: cubic-bezier(0,0,0.575,0.95)} 33.333333% {stroke-dashoffset: 220} 42.222222% {stroke-dashoffset: 220;animation-timing-function: cubic-bezier(0.295,0.71,0.575,0.95)} 88.888889% {stroke-dashoffset: 691.25} 100% {stroke-dashoffset: 691.25}}@keyframes elgv3ScWQ9k7_s_da { 0% {stroke-dasharray: 0, 691.25} 15.555556% {stroke-dasharray: 0, 691.25;animation-timing-function: cubic-bezier(0,0,0.575,0.95)} 33.333333% {stroke-dasharray: 220, 471.25} 42.222222% {stroke-dasharray: 220, 471.25;animation-timing-function: cubic-bezier(0.295,0.71,0.575,0.95)} 88.888889% {stroke-dasharray: 691.25, 0} 100% {stroke-dasharray: 691.25, 0}} #elgv3ScWQ9k8 {animation-name: elgv3ScWQ9k8_c_o, elgv3ScWQ9k8_s_do, elgv3ScWQ9k8_s_da;animation-duration: 4500ms;animation-fill-mode: forwards;animation-timing-function: linear;animation-direction: normal;animation-iteration-count: infinite;}@keyframes elgv3ScWQ9k8_c_o { 0% {opacity: 0.5} 15.555556% {opacity: 0.5} 88.888889% {opacity: 0} 100% {opacity: 0}}@keyframes elgv3ScWQ9k8_s_do { 0% {stroke-dashoffset: 0;animation-timing-function: cubic-bezier(0,0,0.58,1)} 15.555556% {stroke-dashoffset: 295;animation-timing-function: cubic-bezier(0,0,0.575,0.95)} 33.333333% {stroke-dashoffset: 295} 88.888889% {stroke-dashoffset: 295} 100% {stroke-dashoffset: 295}}@keyframes elgv3ScWQ9k8_s_da { 0% {stroke-dasharray: 0, 945.75;animation-timing-function: cubic-bezier(0,0,0.58,1)} 15.555556% {stroke-dasharray: 295, 650.75;animation-timing-function: cubic-bezier(0,0,0.575,0.95)} 33.333333% {stroke-dasharray: 295, 650.75} 88.888889% {stroke-dasharray: 295, 650.75} 100% {stroke-dasharray: 295, 650.75}} #elgv3ScWQ9k9 {animation-name: elgv3ScWQ9k9_c_o, elgv3ScWQ9k9_s_do, elgv3ScWQ9k9_s_da;animation-duration: 4500ms;animation-fill-mode: forwards;animation-timing-function: linear;animation-direction: normal;animation-iteration-count: infinite;}@keyframes elgv3ScWQ9k9_c_o { 0% {opacity: 0} 15.555556% {opacity: 0} 20% {opacity: 1} 88.888889% {opacity: 1} 100% {opacity: 0}}@keyframes elgv3ScWQ9k9_s_do { 0% {stroke-dashoffset: 0} 15.555556% {stroke-dashoffset: 295;animation-timing-function: cubic-bezier(0,0,0.575,0.95)} 33.333333% {stroke-dashoffset: 295} 42.222222% {stroke-dashoffset: 295;animation-timing-function: cubic-bezier(0.295,0.71,0.575,0.95)} 88.888889% {stroke-dashoffset: 945.75} 100% {stroke-dashoffset: 945.75}}@keyframes elgv3ScWQ9k9_s_da { 0% {stroke-dasharray: 0, 945.75} 15.555556% {stroke-dasharray: 0, 945.75;animation-timing-function: cubic-bezier(0,0,0.575,0.95)} 33.333333% {stroke-dasharray: 295, 650.75} 42.222222% {stroke-dasharray: 295, 650.75;animation-timing-function: cubic-bezier(0.295,0.71,0.575,0.95)} 88.888889% {stroke-dasharray: 945.75, 0} 100% {stroke-dasharray: 945.75, 0}} #elgv3ScWQ9k10 {animation-name: elgv3ScWQ9k10_c_o, elgv3ScWQ9k10_s_do, elgv3ScWQ9k10_s_da;animation-duration: 4500ms;animation-fill-mode: forwards;animation-timing-function: linear;animation-direction: normal;animation-iteration-count: infinite;}@keyframes elgv3ScWQ9k10_c_o { 0% {opacity: 0.5} 15.555556% {opacity: 0.5} 88.888889% {opacity: 0} 100% {opacity: 0}}@keyframes elgv3ScWQ9k10_s_do { 0% {stroke-dashoffset: 0;animation-timing-function: cubic-bezier(0,0,0.58,1)} 15.555556% {stroke-dashoffset: 375;animation-timing-function: cubic-bezier(0,0,0.575,0.95)} 33.333333% {stroke-dashoffset: 375} 88.888889% {stroke-dashoffset: 375} 100% {stroke-dashoffset: 375}}@keyframes elgv3ScWQ9k10_s_da { 0% {stroke-dasharray: 0, 1225.39;animation-timing-function: cubic-bezier(0,0,0.58,1)} 15.555556% {stroke-dasharray: 375, 850.39;animation-timing-function: cubic-bezier(0,0,0.575,0.95)} 33.333333% {stroke-dasharray: 375, 850.39} 88.888889% {stroke-dasharray: 375, 850.39} 100% {stroke-dasharray: 375, 850.39}} #elgv3ScWQ9k11 {animation-name: elgv3ScWQ9k11_c_o, elgv3ScWQ9k11_s_do, elgv3ScWQ9k11_s_da;animation-duration: 4500ms;animation-fill-mode: forwards;animation-timing-function: linear;animation-direction: normal;animation-iteration-count: infinite;}@keyframes elgv3ScWQ9k11_c_o { 0% {opacity: 0} 15.555556% {opacity: 0} 20% {opacity: 1} 88.888889% {opacity: 1} 100% {opacity: 0}}@keyframes elgv3ScWQ9k11_s_do { 0% {stroke-dashoffset: 0} 15.555556% {stroke-dashoffset: 375;animation-timing-function: cubic-bezier(0,0,0.575,0.95)} 33.333333% {stroke-dashoffset: 375} 42.222222% {stroke-dashoffset: 375;animation-timing-function: cubic-bezier(0.295,0.71,0.575,0.95)} 88.888889% {stroke-dashoffset: 1225.39} 100% {stroke-dashoffset: 1225.39}}@keyframes elgv3ScWQ9k11_s_da { 0% {stroke-dasharray: 0, 1225.39} 15.555556% {stroke-dasharray: 0, 1225.39;animation-timing-function: cubic-bezier(0,0,0.575,0.95)} 33.333333% {stroke-dasharray: 375, 850.39} 42.222222% {stroke-dasharray: 375, 850.39;animation-timing-function: cubic-bezier(0.295,0.71,0.575,0.95)} 88.888889% {stroke-dasharray: 1225.39, 0} 100% {stroke-dasharray: 1225.39, 0}} #elgv3ScWQ9k12 {animation-name: elgv3ScWQ9k12_c_o, elgv3ScWQ9k12_s_do, elgv3ScWQ9k12_s_da;animation-duration: 4500ms;animation-fill-mode: forwards;animation-timing-function: linear;animation-direction: normal;animation-iteration-count: infinite;}@keyframes elgv3ScWQ9k12_c_o { 0% {opacity: 0.5} 15.555556% {opacity: 0.5} 88.888889% {opacity: 0} 100% {opacity: 0}}@keyframes elgv3ScWQ9k12_s_do { 0% {stroke-dashoffset: 0;animation-timing-function: cubic-bezier(0,0,0.58,1)} 15.555556% {stroke-dashoffset: 450;animation-timing-function: cubic-bezier(0,0,0.575,0.95)} 33.333333% {stroke-dashoffset: 450} 88.888889% {stroke-dashoffset: 450} 100% {stroke-dashoffset: 450}}@keyframes elgv3ScWQ9k12_s_da { 0% {stroke-dasharray: 0, 1505.03;animation-timing-function: cubic-bezier(0,0,0.58,1)} 15.555556% {stroke-dasharray: 450, 1055.78;animation-timing-function: cubic-bezier(0,0,0.575,0.95)} 33.333333% {stroke-dasharray: 450, 1055.78} 88.888889% {stroke-dasharray: 450, 1055.78} 100% {stroke-dasharray: 450, 1055.78}} #elgv3ScWQ9k13 {animation-name: elgv3ScWQ9k13_c_o, elgv3ScWQ9k13_s_do, elgv3ScWQ9k13_s_da;animation-duration: 4500ms;animation-fill-mode: forwards;animation-timing-function: linear;animation-direction: normal;animation-iteration-count: infinite;}@keyframes elgv3ScWQ9k13_c_o { 0% {opacity: 0} 15.555556% {opacity: 0} 20% {opacity: 1} 88.888889% {opacity: 1} 100% {opacity: 0}}@keyframes elgv3ScWQ9k13_s_do { 0% {stroke-dashoffset: 0;animation-timing-function: step-end} 15.555556% {stroke-dashoffset: 450;animation-timing-function: cubic-bezier(0,0,0.575,0.95)} 33.333333% {stroke-dashoffset: 450} 42.222222% {stroke-dashoffset: 450;animation-timing-function: cubic-bezier(0.295,0.71,0.575,0.95)} 88.888889% {stroke-dashoffset: 1505.03} 100% {stroke-dashoffset: 1505.03}}@keyframes elgv3ScWQ9k13_s_da { 0% {stroke-dasharray: 0, 1505.03;animation-timing-function: step-end} 15.555556% {stroke-dasharray: 0, 1505.03;animation-timing-function: cubic-bezier(0,0,0.575,0.95)} 33.333333% {stroke-dasharray: 450, 1055.78} 42.222222% {stroke-dasharray: 450, 1055.78;animation-timing-function: cubic-bezier(0.295,0.71,0.575,0.95)} 88.888889% {stroke-dasharray: 1505.03, 0} 100% {stroke-dasharray: 1505.03, 0}} #elgv3ScWQ9k14 {animation-name: elgv3ScWQ9k14_c_o, elgv3ScWQ9k14_s_do, elgv3ScWQ9k14_s_da;animation-duration: 4500ms;animation-fill-mode: forwards;animation-timing-function: linear;animation-direction: normal;animation-iteration-count: infinite;}@keyframes elgv3ScWQ9k14_c_o { 0% {opacity: 0.5} 15.555556% {opacity: 0.5} 88.888889% {opacity: 0} 100% {opacity: 0}}@keyframes elgv3ScWQ9k14_s_do { 0% {stroke-dashoffset: 0;animation-timing-function: cubic-bezier(0,0,0.58,1)} 15.555556% {stroke-dashoffset: 530;animation-timing-function: cubic-bezier(0,0,0.575,0.95)} 33.333333% {stroke-dashoffset: 530} 88.888889% {stroke-dashoffset: 530} 100% {stroke-dashoffset: 530}}@keyframes elgv3ScWQ9k14_s_da { 0% {stroke-dasharray: 0, 1775.25;animation-timing-function: cubic-bezier(0,0,0.58,1)} 15.555556% {stroke-dasharray: 530, 1245.25;animation-timing-function: cubic-bezier(0,0,0.575,0.95)} 33.333333% {stroke-dasharray: 530, 1245.25} 88.888889% {stroke-dasharray: 530, 1245.25} 100% {stroke-dasharray: 530, 1245.25}} #elgv3ScWQ9k15 {animation-name: elgv3ScWQ9k15_c_o, elgv3ScWQ9k15_s_do, elgv3ScWQ9k15_s_da;animation-duration: 4500ms;animation-fill-mode: forwards;animation-timing-function: linear;animation-direction: normal;animation-iteration-count: infinite;}@keyframes elgv3ScWQ9k15_c_o { 0% {opacity: 0} 15.555556% {opacity: 0} 20% {opacity: 1} 88.888889% {opacity: 1} 100% {opacity: 0}}@keyframes elgv3ScWQ9k15_s_do { 0% {stroke-dashoffset: 0;animation-timing-function: step-end} 15.555556% {stroke-dashoffset: 530;animation-timing-function: cubic-bezier(0,0,0.575,0.95)} 33.333333% {stroke-dashoffset: 530} 42.222222% {stroke-dashoffset: 530;animation-timing-function: cubic-bezier(0.295,0.71,0.575,0.95)} 88.888889% {stroke-dashoffset: 1775.25} 100% {stroke-dashoffset: 1775.25}}@keyframes elgv3ScWQ9k15_s_da { 0% {stroke-dasharray: 0, 1775.25;animation-timing-function: step-end} 15.555556% {stroke-dasharray: 0, 1775.25;animation-timing-function: cubic-bezier(0,0,0.575,0.95)} 33.333333% {stroke-dasharray: 530, 1245.25} 42.222222% {stroke-dasharray: 530, 1245.25;animation-timing-function: cubic-bezier(0.295,0.71,0.575,0.95)} 88.888889% {stroke-dasharray: 1775.25, 0} 100% {stroke-dasharray: 1775.25, 0}} #elgv3ScWQ9k16_tr {animation: elgv3ScWQ9k16_tr__tr 4500ms linear infinite normal forwards}@keyframes elgv3ScWQ9k16_tr__tr { 0% {transform: translate(400px,400px) rotate(0deg);animation-timing-function: cubic-bezier(0,0,0.58,1)} 15.555556% {transform: translate(400px,400px) rotate(-111.526024deg);animation-timing-function: cubic-bezier(0,0,0.58,1)} 33.333333% {transform: translate(400px,400px) rotate(0deg);animation-timing-function: cubic-bezier(0.25,0.46,0.45,0.94)} 88.888889% {transform: translate(400px,400px) rotate(-360deg)} 100% {transform: translate(400px,400px) rotate(-360deg)}}]]></style><g id="elgv3ScWQ9k2" transform="matrix(0.102682 0 0 0.102682 308.927197 158.927197)"><g id="elgv3ScWQ9k3"><path id="elgv3ScWQ9k4" d="M-65.5,0C-65.5,-36.174651,-36.174651,-65.5,0,-65.5C36.174651,-65.5,65.5,-36.174651,65.5,0C65.5,36.174651,36.174651,65.5,0,65.5C-36.174651,65.5,-65.5,36.174651,-65.5,0Z" transform="matrix(0.633245 0.690611 -0.690611 0.633245 400 400)" opacity="0.5" fill="none" stroke="rgb(101,28,206)" stroke-width="49" stroke-linecap="round" stroke-miterlimit="10" stroke-dasharray="0,411.61"/><path id="elgv3ScWQ9k5" d="M-65.5,0C-65.5,-36.174651,-36.174651,-65.5,0,-65.5C36.174651,-65.5,65.5,-36.174651,65.5,0C65.5,36.174651,36.174651,65.5,0,65.5C-36.174651,65.5,-65.5,36.174651,-65.5,0Z" transform="matrix(0.633245 0.690611 -0.690611 0.633245 400 400)" opacity="0" fill="none" stroke="rgb(101,28,206)" stroke-width="49" stroke-linecap="round" stroke-miterlimit="10" stroke-dasharray="0,411.61"/><path id="elgv3ScWQ9k6" d="M-110,0C-110,-60.751322,-60.751322,-110,0,-110C60.751322,-110,110,-60.751322,110,0C110,60.751322,60.751322,110,0,110C-60.751322,110,-110,60.751322,-110,0Z" transform="matrix(0.647343 0.705987 -0.705987 0.647343 400 400)" opacity="0.5" fill="none" stroke="rgb(0,139,255)" stroke-width="46" stroke-linecap="round" stroke-miterlimit="10" stroke-dasharray="0,691.25"/><path id="elgv3ScWQ9k7" d="M-110,0C-110,-60.751322,-60.751322,-110,0,-110C60.751322,-110,110,-60.751322,110,0C110,60.751322,60.751322,110,0,110C-60.751322,110,-110,60.751322,-110,0Z" transform="matrix(0.647343 0.705987 -0.705987 0.647343 400 400)" opacity="0" fill="none" stroke="rgb(0,139,255)" stroke-width="48" stroke-linecap="round" stroke-miterlimit="10" stroke-dasharray="0,691.25"/><path id="elgv3ScWQ9k8" d="M-150.5,0C-150.5,-83.118855,-83.118855,-150.5,0,-150.5C83.118855,-150.5,150.5,-83.118855,150.5,0C150.5,83.118855,83.118855,150.5,0,150.5C-83.118855,150.5,-150.5,83.118855,-150.5,0Z" transform="matrix(0.675831 0.737056 -0.737056 0.675831 400 400)" opacity="0.5" fill="none" stroke="rgb(11,179,48)" stroke-width="47" stroke-linecap="round" stroke-miterlimit="10" stroke-dasharray="0,945.75"/><path id="elgv3ScWQ9k9" d="M-150.5,0C-150.5,-83.118855,-83.118855,-150.5,0,-150.5C83.118855,-150.5,150.5,-83.118855,150.5,0C150.5,83.118855,83.118855,150.5,0,150.5C-83.118855,150.5,-150.5,83.118855,-150.5,0Z" transform="matrix(0.675831 0.737056 -0.737056 0.675831 400 400)" opacity="0" fill="none" stroke="rgb(11,179,48)" stroke-width="47" stroke-linecap="round" stroke-miterlimit="10" stroke-dasharray="0,945.75"/><path id="elgv3ScWQ9k10" d="M-195,0C-195,-107.695526,-107.695526,-195,0,-195C107.695526,-195,195,-107.695526,195,0C195,107.695526,107.695526,195,0,195C-107.695526,195,-195,107.695526,-195,0Z" transform="matrix(0.675831 0.737056 -0.737056 0.675831 400 400)" opacity="0.5" fill="none" stroke="rgb(255,239,11)" stroke-width="45" stroke-linecap="round" stroke-miterlimit="10" stroke-dasharray="0,1225.39"/><path id="elgv3ScWQ9k11" d="M-195,0C-195,-107.695526,-107.695526,-195,0,-195C107.695526,-195,195,-107.695526,195,0C195,107.695526,107.695526,195,0,195C-107.695526,195,-195,107.695526,-195,0Z" transform="matrix(0.675831 0.737056 -0.737056 0.675831 400 400)" opacity="0" fill="none" stroke="rgb(255,239,11)" stroke-width="45" stroke-linecap="round" stroke-miterlimit="10" stroke-dasharray="0,1225.39"/><path id="elgv3ScWQ9k12" d="M-239.5,0C-239.5,-132.272198,-132.272198,-239.5,0,-239.5C132.272198,-239.5,239.5,-132.272198,239.5,0C239.5,132.272198,132.272198,239.5,0,239.5C-132.272198,239.5,-239.5,132.272198,-239.5,0Z" transform="matrix(0.675831 0.737056 -0.737056 0.675831 400 400)" opacity="0.5" fill="none" stroke="rgb(245,117,21)" stroke-width="45" stroke-linecap="round" stroke-miterlimit="10" stroke-dasharray="0,1505.03"/><path id="elgv3ScWQ9k13" d="M-239.5,0C-239.5,-132.272198,-132.272198,-239.5,0,-239.5C132.272198,-239.5,239.5,-132.272198,239.5,0C239.5,132.272198,132.272198,239.5,0,239.5C-132.272198,239.5,-239.5,132.272198,-239.5,0Z" transform="matrix(0.675831 0.737056 -0.737056 0.675831 400 400)" opacity="0" fill="none" stroke="rgb(245,117,21)" stroke-width="45" stroke-linecap="round" stroke-miterlimit="10" stroke-dasharray="0,1505.03"/><path id="elgv3ScWQ9k14" d="M-282.5,0C-282.5,-156.020442,-156.020442,-282.5,0,-282.5C156.020442,-282.5,282.5,-156.020442,282.5,0C282.5,156.020442,156.020442,282.5,0,282.5C-156.020442,282.5,-282.5,156.020442,-282.5,0Z" transform="matrix(0.675831 0.737056 -0.737056 0.675831 400 400)" opacity="0.5" fill="none" stroke="rgb(240,20,22)" stroke-width="43" stroke-linecap="round" stroke-miterlimit="10" stroke-dasharray="0,1775.25"/><path id="elgv3ScWQ9k15" d="M-282.5,0C-282.5,-156.020442,-156.020442,-282.5,0,-282.5C156.020442,-282.5,282.5,-156.020442,282.5,0C282.5,156.020442,156.020442,282.5,0,282.5C-156.020442,282.5,-282.5,156.020442,-282.5,0Z" transform="matrix(0.675831 0.737056 -0.737056 0.675831 400 400)" opacity="0" fill="none" stroke="rgb(240,20,22)" stroke-width="43" stroke-linecap="round" stroke-miterlimit="10" stroke-dasharray="0,1775.25"/></g><g id="elgv3ScWQ9k16_tr" transform="translate(400,400) rotate(0)"><g id="elgv3ScWQ9k16" transform="translate(-400,-400)"><path id="elgv3ScWQ9k17" d="M199,205.8C199,205.8,169.3,181.7,162.5,182C151,182.6,121.9,215.5,127.2,224.9C148.5,262.5,202.4,345.3,198.6,351.7C191.1,364.5,47,509.7,47,509.7" fill="none" stroke="rgb(0,0,0)" stroke-width="12" stroke-miterlimit="10"/><path id="elgv3ScWQ9k18" d="M394.9,366.7L362.4,400C353.9,408.7,346.1,404.8,338.8,397.7L165.3,228.5C158,221.4,153.9,213.7,162.4,204.9L194.9,171.6C203.4,162.9,211.2,166.8,218.5,173.9L392,343.2C399.3,350.3,403.5,358,394.9,366.7Z" fill="rgb(240,20,22)" stroke="rgb(0,0,0)" stroke-width="5" stroke-miterlimit="10"/><path id="elgv3ScWQ9k19" d="M389.8,372L367.6,394.8C359.1,403.5,346.1,404.9,338.8,397.8L185.2,247.9C185.3,247.8,185.4,247.7,185.4,247.6L238.4,193.3L392,343.2C399.3,350.3,398.3,363.3,389.8,372Z" fill="rgb(245,117,21)" stroke="rgb(0,0,0)" stroke-width="5" stroke-miterlimit="10"/><path id="elgv3ScWQ9k20" d="M389.8,372L367.6,394.8C359.1,403.5,346.1,404.9,338.8,397.8L218.6,280.5C218.6,280.5,271.6,226.2,271.8,226L392,343.2C399.3,350.3,398.3,363.3,389.8,372Z" fill="rgb(255,239,11)" stroke="rgb(0,0,0)" stroke-width="5" stroke-miterlimit="10"/><path id="elgv3ScWQ9k21" d="M389.8,372L367.6,394.8C359.1,403.5,346.1,404.9,338.8,397.8L251.7,312.9L304.3,259C304.5,258.8,304.7,258.6,304.9,258.4L391.9,343.3C399.3,350.3,398.3,363.3,389.8,372Z" fill="rgb(11,179,48)" stroke="rgb(0,0,0)" stroke-width="5" stroke-miterlimit="10"/><path id="elgv3ScWQ9k22" d="M389.8,372L367.6,394.8C359.1,403.5,346.1,404.9,338.8,397.8L284.9,345.2L337.5,291.3C337.7,291.1,337.9,290.9,338.1,290.7L392,343.3C399.3,350.3,398.3,363.3,389.8,372Z" fill="rgb(0,139,255)" stroke="rgb(0,0,0)" stroke-width="5" stroke-miterlimit="10"/><path id="elgv3ScWQ9k23" d="M394.9,366.7L362.4,400C353.9,408.7,346.1,404.8,338.8,397.7L318.3,377.7L370.4,324.3C370.8,323.9,371.2,323.5,371.6,323.2L392,343.1C399.3,350.3,403.5,358,394.9,366.7Z" fill="rgb(101,28,206)" stroke="rgb(0,0,0)" stroke-width="5" stroke-miterlimit="10"/><line id="elgv3ScWQ9k24" x1="209.2" y1="182.4" x2="383.5" y2="352.4" fill="none" stroke="rgb(255,255,255)" stroke-width="7" stroke-linecap="round" stroke-linejoin="round" stroke-miterlimit="10"/><path id="elgv3ScWQ9k25" d="M185.2,247.9C185.3,247.8,185.4,247.7,185.4,247.6L238.4,193.3" fill="none" stroke="rgb(0,0,0)" stroke-width="5" stroke-miterlimit="10"/><path id="elgv3ScWQ9k26" d="M218.6,280.5C218.6,280.5,271.6,226.2,271.8,226" fill="none" stroke="rgb(0,0,0)" stroke-width="5" stroke-miterlimit="10"/><path id="elgv3ScWQ9k27" d="M318.4,377.8C318.4,377.8,371.4,323.5,371.6,323.3" fill="none" stroke="rgb(0,0,0)" stroke-width="5" stroke-miterlimit="10"/><path id="elgv3ScWQ9k28" d="M284.9,345.2C284.9,345.2,337.9,290.9,338.1,290.7" fill="none" stroke="rgb(0,0,0)" stroke-width="5" stroke-miterlimit="10"/><path id="elgv3ScWQ9k29" d="M252,312.8C252.4,312.4,305.2,258.3,305.2,258.3" fill="none" stroke="rgb(0,0,0)" stroke-width="5" stroke-miterlimit="10"/><path id="elgv3ScWQ9k30" d="M394.9,366.7L362.4,400C353.9,408.7,346.1,404.8,338.8,397.7L318.3,377.7L370.4,324.3C370.8,323.9,371.2,323.5,371.6,323.2L392,343.1C399.3,350.3,403.5,358,394.9,366.7Z" fill="none" stroke="rgb(0,0,0)" stroke-width="5" stroke-miterlimit="10"/><path id="elgv3ScWQ9k31" d="M45.3,522.5C43.2,521.3,41.2,519.9,39.4,518.1L39,517.7C27.5,506.5,28,487.8,40,477.2L160.7,368.3C162.8,366.5,166,366.5,167.9,368.5L186,386.1C188,388.1,188.2,391.2,186.3,393.4L79.8,516.2C71,526.5,56.5,528.7,45.3,522.5Z" fill="rgb(222,184,153)" stroke="rgb(0,0,0)" stroke-width="5" stroke-miterlimit="10"/><path id="elgv3ScWQ9k32" d="M182.1,382.3L186.1,386.2C188.1,388.2,188.3,391.3,186.4,393.5L79.8,516.2C71.1,526.5,56.6,528.7,45.4,522.5" fill="rgb(204,153,153)" stroke="rgb(0,0,0)" stroke-width="5" stroke-miterlimit="10"/><line id="elgv3ScWQ9k33" x1="164.3" y1="396.8" x2="63.3" y2="500.4" fill="none" stroke="rgb(255,255,255)" stroke-width="5" stroke-linecap="round" stroke-linejoin="round" stroke-miterlimit="10"/></g></g></g></svg>